<mxfile host="app.diagrams.net" modified="2022-07-08T11:26:10.860Z" agent="5.0 (Windows NT 10.0; Win64; x64) AppleWebKit/537.36 (KHTML, like Gecko) Chrome/100.0.4896.160 YaBrowser/22.5.4.904 Yowser/2.5 Safari/537.36" etag="RhmlNJiW_M3h7E3W8Txl" version="20.0.4" type="github">
  <diagram id="MUjYJQbiK1INUAyZAl1O" name="Page-1">
    <mxGraphModel dx="1422" dy="765" grid="1" gridSize="10" guides="1" tooltips="1" connect="1" arrows="1" fold="1" page="1" pageScale="1" pageWidth="827" pageHeight="1169" math="0" shadow="0">
      <root>
        <mxCell id="0" />
        <mxCell id="1" parent="0" />
        <mxCell id="5PXq2t10wzCUhbJBApSk-8" value="" style="edgeStyle=orthogonalEdgeStyle;rounded=0;orthogonalLoop=1;jettySize=auto;html=1;" edge="1" parent="1" source="5PXq2t10wzCUhbJBApSk-1" target="5PXq2t10wzCUhbJBApSk-3">
          <mxGeometry relative="1" as="geometry" />
        </mxCell>
        <mxCell id="5PXq2t10wzCUhbJBApSk-1" value="Начало" style="rounded=1;whiteSpace=wrap;html=1;" vertex="1" parent="1">
          <mxGeometry x="354" y="30" width="120" height="60" as="geometry" />
        </mxCell>
        <mxCell id="5PXq2t10wzCUhbJBApSk-2" value="Конец" style="rounded=1;whiteSpace=wrap;html=1;" vertex="1" parent="1">
          <mxGeometry x="354" y="690" width="120" height="60" as="geometry" />
        </mxCell>
        <mxCell id="5PXq2t10wzCUhbJBApSk-9" value="" style="edgeStyle=orthogonalEdgeStyle;rounded=0;orthogonalLoop=1;jettySize=auto;html=1;" edge="1" parent="1" source="5PXq2t10wzCUhbJBApSk-3" target="5PXq2t10wzCUhbJBApSk-4">
          <mxGeometry relative="1" as="geometry" />
        </mxCell>
        <mxCell id="5PXq2t10wzCUhbJBApSk-3" value="array =&amp;nbsp;&lt;span style=&quot;color: rgb(44, 45, 48); font-family: Roboto, &amp;quot;San Francisco&amp;quot;, &amp;quot;Helvetica Neue&amp;quot;, Helvetica, Arial; font-size: 15px; text-align: start; background-color: rgb(255, 255, 255);&quot;&gt;[2, 5, 13, 7, 6, 4]&lt;br&gt;mean = 0&lt;br&gt;&lt;/span&gt;" style="shape=parallelogram;perimeter=parallelogramPerimeter;whiteSpace=wrap;html=1;fixedSize=1;" vertex="1" parent="1">
          <mxGeometry x="299" y="130" width="230" height="80" as="geometry" />
        </mxCell>
        <mxCell id="5PXq2t10wzCUhbJBApSk-10" value="" style="edgeStyle=orthogonalEdgeStyle;rounded=0;orthogonalLoop=1;jettySize=auto;html=1;" edge="1" parent="1" source="5PXq2t10wzCUhbJBApSk-4" target="5PXq2t10wzCUhbJBApSk-5">
          <mxGeometry relative="1" as="geometry" />
        </mxCell>
        <mxCell id="5PXq2t10wzCUhbJBApSk-12" style="edgeStyle=orthogonalEdgeStyle;rounded=0;orthogonalLoop=1;jettySize=auto;html=1;entryX=1;entryY=0.5;entryDx=0;entryDy=0;" edge="1" parent="1" source="5PXq2t10wzCUhbJBApSk-4" target="5PXq2t10wzCUhbJBApSk-6">
          <mxGeometry relative="1" as="geometry">
            <mxPoint x="570" y="460" as="targetPoint" />
            <Array as="points">
              <mxPoint x="570" y="290" />
              <mxPoint x="570" y="500" />
            </Array>
          </mxGeometry>
        </mxCell>
        <mxCell id="5PXq2t10wzCUhbJBApSk-4" value="i = 0; i &amp;lt; 6; i++" style="shape=hexagon;perimeter=hexagonPerimeter2;whiteSpace=wrap;html=1;fixedSize=1;" vertex="1" parent="1">
          <mxGeometry x="354" y="250" width="120" height="80" as="geometry" />
        </mxCell>
        <mxCell id="5PXq2t10wzCUhbJBApSk-11" style="edgeStyle=orthogonalEdgeStyle;rounded=0;orthogonalLoop=1;jettySize=auto;html=1;" edge="1" parent="1" source="5PXq2t10wzCUhbJBApSk-5">
          <mxGeometry relative="1" as="geometry">
            <mxPoint x="350" y="290" as="targetPoint" />
            <Array as="points">
              <mxPoint x="210" y="400" />
              <mxPoint x="210" y="290" />
            </Array>
          </mxGeometry>
        </mxCell>
        <mxCell id="5PXq2t10wzCUhbJBApSk-5" value="mean += array[i]" style="rounded=0;whiteSpace=wrap;html=1;" vertex="1" parent="1">
          <mxGeometry x="354" y="370" width="120" height="60" as="geometry" />
        </mxCell>
        <mxCell id="5PXq2t10wzCUhbJBApSk-13" value="" style="edgeStyle=orthogonalEdgeStyle;rounded=0;orthogonalLoop=1;jettySize=auto;html=1;" edge="1" parent="1" source="5PXq2t10wzCUhbJBApSk-6" target="5PXq2t10wzCUhbJBApSk-7">
          <mxGeometry relative="1" as="geometry" />
        </mxCell>
        <mxCell id="5PXq2t10wzCUhbJBApSk-6" value="mean = mean / 6" style="rounded=0;whiteSpace=wrap;html=1;" vertex="1" parent="1">
          <mxGeometry x="354" y="470" width="120" height="60" as="geometry" />
        </mxCell>
        <mxCell id="5PXq2t10wzCUhbJBApSk-14" value="" style="edgeStyle=orthogonalEdgeStyle;rounded=0;orthogonalLoop=1;jettySize=auto;html=1;" edge="1" parent="1" source="5PXq2t10wzCUhbJBApSk-7" target="5PXq2t10wzCUhbJBApSk-2">
          <mxGeometry relative="1" as="geometry" />
        </mxCell>
        <mxCell id="5PXq2t10wzCUhbJBApSk-7" value="mean" style="shape=document;whiteSpace=wrap;html=1;boundedLbl=1;" vertex="1" parent="1">
          <mxGeometry x="354" y="570" width="120" height="80" as="geometry" />
        </mxCell>
      </root>
    </mxGraphModel>
  </diagram>
</mxfile>
